<svg width="429" height="467" xmlns="http://www.w3.org/2000/svg" xmlns:xlink="http://www.w3.org/1999/xlink" xml:space="preserve" overflow="hidden"><defs><filter id="fx0" x="-10%" y="-10%" width="120%" height="120%" filterUnits="userSpaceOnUse" primitiveUnits="userSpaceOnUse"><feComponentTransfer color-interpolation-filters="sRGB"><feFuncR type="discrete" tableValues="0.615686 0.615686"/><feFuncG type="discrete" tableValues="0.764706 0.764706"/><feFuncB type="discrete" tableValues="0.901961 0.901961"/><feFuncA type="linear" slope="1" intercept="0"/></feComponentTransfer><feGaussianBlur stdDeviation="1.37266 1.37266"/></filter><clipPath id="clip1"><rect x="963" y="1172" width="429" height="467"/></clipPath><clipPath id="clip2"><rect x="-1" y="-1" width="385" height="185"/></clipPath><clipPath id="clip3"><rect x="0" y="0" width="384" height="185"/></clipPath></defs><g clip-path="url(#clip1)" transform="translate(-963 -1172)"><g clip-path="url(#clip2)" filter="url(#fx0)" transform="translate(992 1388)"><g clip-path="url(#clip3)"><path d="M257.447 108.229C251.247 108.229 245.453 111.782 240.064 118.888 234.675 125.993 231.981 133.075 231.981 140.133 231.981 146.428 234.699 151.483 240.136 155.298ZM252.153 29.9718 240.708 66.3107C240.04 68.5044 239.706 70.5073 239.706 72.3195 239.706 80.4266 245.62 84.4801 257.447 84.4801 258.21 84.4801 259.33 84.4324 260.809 84.337 262.287 84.2417 263.408 84.194 264.171 84.194L282.626 29.9718ZM79.5911 7.08118 100.336 7.08118C112.449 7.08118 123.083 8.94105 132.24 12.6608 144.448 17.6204 150.838 25.1552 151.41 35.2653 151.887 45.4707 146.975 53.9593 136.675 60.7311L89.3196 60.7311 104.771 29.9718 74.5838 29.9718 62.8524 64.4508C62.1847 66.4537 61.8509 68.2659 61.8509 69.8873 61.8509 77.6129 68.0504 81.4757 80.4495 81.4757L191.412 81.4757 190.17 79.0794C188.477 74.8112 187.63 70.1735 187.63 65.1661 187.63 61.2557 188.25 57.1544 189.49 52.8624 193.591 37.3159 202.604 25.5844 216.53 17.6681 228.738 10.6102 243.426 7.08118 260.594 7.08118L342.428 7.08118 316.247 81.4757 376.907 81.4757C372.52 96.7361 358.356 104.366 334.416 104.366L308.95 104.366C300.462 127.448 292.021 144.139 283.628 154.44 271.324 169.509 255.73 177.044 236.845 177.044 226.163 177.044 217.65 174.064 211.308 168.102 204.965 162.141 201.794 153.867 201.794 143.28 201.794 122.583 207.85 109.231 219.963 103.222 210.998 101.123 203.606 96.9746 197.788 90.775 196.095 89.0105 194.614 87.1537 193.344 85.2044L191.775 82.1762 190.056 86.6887C187.588 91.6066 183.672 95.6393 178.307 98.7867 171.917 102.506 164.62 104.366 156.418 104.366L76.7298 104.366C30.3763 104.366 7.19953 90.3935 7.19953 62.4479 7.19953 44.5169 15.1159 30.4487 30.9486 20.2433 44.5875 11.4686 60.8017 7.08118 79.5911 7.08118Z" stroke="#FFFFFF" stroke-width="3" stroke-linejoin="round" stroke-miterlimit="10" fill="#5B9BD5" fill-rule="evenodd"/></g></g><path d="M1240.77 1487.56C1234.57 1487.56 1228.78 1491.11 1223.39 1498.21 1218 1505.32 1215.31 1512.4 1215.31 1519.46 1215.31 1525.76 1218.03 1530.81 1223.46 1534.63ZM1235.48 1409.3 1224.04 1445.64C1223.37 1447.83 1223.03 1449.83 1223.03 1451.65 1223.03 1459.75 1228.95 1463.81 1240.77 1463.81 1241.54 1463.81 1242.66 1463.76 1244.14 1463.66 1245.61 1463.57 1246.74 1463.52 1247.5 1463.52L1265.95 1409.3ZM1062.92 1386.41 1083.66 1386.41C1095.78 1386.41 1106.41 1388.27 1115.57 1391.99 1127.78 1396.95 1134.17 1404.48 1134.74 1414.59 1135.21 1424.8 1130.3 1433.29 1120 1440.06L1072.65 1440.06 1088.1 1409.3 1057.91 1409.3 1046.18 1443.78C1045.51 1445.78 1045.18 1447.59 1045.18 1449.21 1045.18 1456.94 1051.38 1460.8 1063.78 1460.8L1174.74 1460.8 1173.5 1458.41C1171.8 1454.14 1170.96 1449.5 1170.96 1444.49 1170.96 1440.58 1171.58 1436.48 1172.82 1432.19 1176.92 1416.64 1185.93 1404.91 1199.86 1397 1212.07 1389.94 1226.75 1386.41 1243.92 1386.41L1325.76 1386.41 1299.57 1460.8 1360.23 1460.8C1355.85 1476.06 1341.68 1483.69 1317.74 1483.69L1292.28 1483.69C1283.79 1506.78 1275.35 1523.47 1266.96 1533.77 1254.65 1548.84 1239.06 1556.37 1220.17 1556.37 1209.49 1556.37 1200.98 1553.39 1194.64 1547.43 1188.29 1541.47 1185.12 1533.19 1185.12 1522.61 1185.12 1501.91 1191.18 1488.56 1203.29 1482.55 1194.33 1480.45 1186.93 1476.3 1181.12 1470.1 1179.42 1468.34 1177.94 1466.48 1176.67 1464.53L1175.1 1461.5 1173.38 1466.02C1170.92 1470.93 1167 1474.97 1161.63 1478.11 1155.24 1481.83 1147.95 1483.69 1139.75 1483.69L1060.06 1483.69C1013.7 1483.69 990.527 1469.72 990.527 1441.78 990.527 1423.84 998.443 1409.78 1014.28 1399.57 1027.91 1390.8 1044.13 1386.41 1062.92 1386.41Z" stroke="#FFFFFF" stroke-width="3" stroke-linejoin="round" stroke-miterlimit="10" fill="#5B9BD5" fill-rule="evenodd"/><text fill="#000000" fill-opacity="0" font-family="Arial,Arial_MSFontService,sans-serif" font-size="169.963" x="990.527" y="1535.13">eg</text></g></svg>