<?xml version="1.0" encoding="UTF-8" standalone="no"?>
<svg
   xmlns:dc="http://purl.org/dc/elements/1.1/"
   xmlns:cc="http://creativecommons.org/ns#"
   xmlns:rdf="http://www.w3.org/1999/02/22-rdf-syntax-ns#"
   xmlns:svg="http://www.w3.org/2000/svg"
   xmlns="http://www.w3.org/2000/svg"
   xmlns:sodipodi="http://sodipodi.sourceforge.net/DTD/sodipodi-0.dtd"
   xmlns:inkscape="http://www.inkscape.org/namespaces/inkscape"
   width="8.5in"
   height="8.5in"
   viewBox="0 0 215.9 215.90001"
   version="1.1"
   id="svg8"
   inkscape:version="1.0 (4035a4fb49, 2020-05-01)"
   sodipodi:docname="RegExponent Logo.svg"
   inkscape:export-filename="C:\Users\Bill\Downloads\RegExponent\RegExponent Logo.png"
   inkscape:export-xdpi="96"
   inkscape:export-ydpi="96">
  <defs
     id="defs2">
    <filter
       primitiveUnits="userSpaceOnUse"
       filterUnits="userSpaceOnUse"
       height="356.40002"
       width="252.00002"
       y="-29.700001"
       x="-21"
       id="fx0">
      <feComponentTransfer
         id="feComponentTransfer985"
         color-interpolation-filters="sRGB">
        <feFuncR
           id="feFuncR977"
           tableValues="0.615686 0.615686"
           type="discrete" />
        <feFuncG
           id="feFuncG979"
           tableValues="0.764706 0.764706"
           type="discrete" />
        <feFuncB
           id="feFuncB981"
           tableValues="0.901961 0.901961"
           type="discrete" />
        <feFuncA
           id="feFuncA983"
           intercept="0"
           slope="1"
           type="linear" />
      </feComponentTransfer>
      <feGaussianBlur
         id="feGaussianBlur987"
         stdDeviation="0.62086 0.62086" />
    </filter>
    <filter
       primitiveUnits="userSpaceOnUse"
       filterUnits="userSpaceOnUse"
       height="356.40002"
       width="252.00002"
       y="-29.700001"
       x="-21"
       id="fx1">
      <feComponentTransfer
         id="feComponentTransfer998"
         color-interpolation-filters="sRGB">
        <feFuncR
           id="feFuncR990"
           tableValues="0.615686 0.615686"
           type="discrete" />
        <feFuncG
           id="feFuncG992"
           tableValues="0.764706 0.764706"
           type="discrete" />
        <feFuncB
           id="feFuncB994"
           tableValues="0.901961 0.901961"
           type="discrete" />
        <feFuncA
           id="feFuncA996"
           intercept="0"
           slope="1"
           type="linear" />
      </feComponentTransfer>
      <feGaussianBlur
         id="feGaussianBlur1000"
         stdDeviation="0.62086 0.62086" />
    </filter>
    <clipPath
       id="clip2">
      <rect
         id="rect1003"
         height="280"
         width="275"
         y="404"
         x="245" />
    </clipPath>
    <clipPath
       id="clip3">
      <rect
         id="rect1006"
         height="103"
         width="101"
         y="1"
         x="2" />
    </clipPath>
    <clipPath
       id="clip4">
      <rect
         id="rect1009"
         height="106"
         width="105"
         y="0"
         x="0" />
    </clipPath>
    <clipPath
       id="clip5">
      <rect
         id="rect1012"
         height="123"
         width="212"
         y="1"
         x="1" />
    </clipPath>
    <clipPath
       id="clip6">
      <rect
         id="rect1015"
         height="125"
         width="215"
         y="0"
         x="0" />
    </clipPath>
  </defs>
  <sodipodi:namedview
     id="base"
     pagecolor="#ffffff"
     bordercolor="#666666"
     borderopacity="1.0"
     inkscape:pageopacity="0.0"
     inkscape:pageshadow="2"
     inkscape:zoom="1.0134804"
     inkscape:cx="408"
     inkscape:cy="408"
     inkscape:document-units="in"
     inkscape:current-layer="layer1"
     inkscape:document-rotation="0"
     showgrid="false"
     inkscape:window-width="1920"
     inkscape:window-height="1017"
     inkscape:window-x="-8"
     inkscape:window-y="-8"
     inkscape:window-maximized="1"
     units="in" />
  <metadata
     id="metadata5">
    <rdf:RDF>
      <cc:Work
         rdf:about="">
        <dc:format>image/svg+xml</dc:format>
        <dc:type
           rdf:resource="http://purl.org/dc/dcmitype/StillImage" />
        <dc:title />
      </cc:Work>
    </rdf:RDF>
  </metadata>
  <g
     inkscape:label="Layer 1"
     inkscape:groupmode="layer"
     id="layer1">
    <g
       transform="matrix(0.9493064,0,0,1.0327223,-45.669183,46.232338)"
       id="g869">
      <g
         id="g1034"
         transform="matrix(0.7135073,0,0,0.7135073,49.705226,36.638248)"
         filter="url(#fx1)"
         clip-path="url(#clip5)">
        <g
           id="g1032"
           clip-path="url(#clip6)">
          <path
             id="path1030"
             fill-rule="evenodd"
             fill="#5b9bd5"
             stroke-miterlimit="10"
             stroke-linejoin="round"
             stroke="#ffffff"
             d="m 181.459,40.4427 c -4.291,0 -7.604,1.6146 -9.937,4.8438 -2.333,3.2292 -3.5,7.7813 -3.5,13.6563 0,6.0833 1.135,10.6666 3.406,13.7499 2.271,3.0834 5.615,4.625 10.031,4.625 4.834,0 8.198,-1.4583 10.094,-4.375 1.896,-2.9166 2.844,-7.5833 2.844,-13.9999 0,-6.4167 -1.073,-11.1042 -3.219,-14.0626 -2.146,-2.9583 -5.385,-4.4375 -9.719,-4.4375 z m -73.312,-0.4374 c -4.458,0 -7.896,1.5729 -10.3126,4.7187 -1.2083,1.5729 -2.1146,3.4766 -2.7187,5.7109 l -0.6388,3.3829 h 26.6071 c 0,-4.4584 -1.135,-7.875 -3.406,-10.2501 -2.271,-2.3749 -5.448,-3.5624 -9.531,-3.5624 z m 68.687,-15.5001 c 5.042,0 8.865,1.0938 11.469,3.2813 2.604,2.1875 4.302,5.5104 5.094,9.9688 h 1.178 l 1.072,-12.0001 h 15.687 v 60.375 c 0,11.7917 -2.77,20.4898 -8.312,26.0938 -5.542,5.604 -14.375,8.615 -26.5,9.031 l -19.375,0.625 -0.625,-14.75 21.25,-0.625 c 5.833,-0.166 10.062,-1.781 12.687,-4.844 2.625,-3.062 3.938,-7.5724 3.938,-13.5308 v -8.125 h -1.375 c -0.667,4.4167 -2.396,7.7292 -5.188,9.9375 -2.791,2.2084 -6.5,3.3125 -11.125,3.3125 -8.208,0 -14.593,-2.9583 -19.156,-8.875 -4.562,-5.9166 -6.844,-14.3958 -6.844,-25.4374 0,-10.9584 2.282,-19.4376 6.844,-25.4375 4.563,-6.0001 10.99,-9.0001 19.281,-9.0001 z m -68.812,0 c 9.417,0 16.719,2.7709 21.906,8.3125 5.188,5.5417 7.781,13.6042 7.781,24.1875 0,3 -0.145,5.8542 -0.437,8.5625 H 95.3467 l 0.2143,0.8125 c 0.901,2.375 2.2526,4.375 4.0547,6 3.6043,3.25 8.7393,4.875 15.4063,4.875 3.042,0 6.01,-0.1562 8.906,-0.4687 2.896,-0.3125 5.865,-0.7396 8.906,-1.2813 l 1.625,16 c -4.25,0.75 -8.125,1.2292 -11.625,1.4375 -3.5,0.2084 -6.604,0.3125 -9.312,0.3125 -11.458,0 -20.3126,-2.9687 -26.5626,-8.9062 -6.25,-5.9375 -9.375,-14.4688 -9.375,-25.5937 0,-10.8334 2.6563,-19.2501 7.9688,-25.25 5.3125,-6.0001 12.802,-9.0001 22.4688,-9.0001 z M 19.9594,18.4427 v 25.875 h 15.0625 c 3.8333,0 6.8125,-1.1354 8.9375,-3.4062 2.125,-2.2708 3.1875,-5.4479 3.1875,-9.5312 0,-4.1251 -1.0625,-7.3126 -3.1875,-9.5626 -2.125,-2.25 -5.1042,-3.375 -8.9375,-3.375 z M 3.45941,3.25525 h 14.37499 2.125 15.0625 c 9.5417,0 16.9167,2.33333 22.125,6.99995 5.2083,4.6667 7.8125,11.2917 7.8125,19.875 0,9.2917 -2.6042,16.5105 -7.8125,21.6563 -1.3021,1.2865 -2.7396,2.4121 -4.3125,3.377 l -1.1608,0.6257 16.5358,36.216 H 48.5219 L 35.4767,59.4895 35.0219,59.5053 H 19.9594 V 92.0052 H 3.45941 Z" />
        </g>
      </g>
      <path
         style="stroke-width:0.713507"
         id="path1036"
         fill-rule="evenodd"
         fill="#5b9bd5"
         stroke-miterlimit="10"
         stroke-linejoin="round"
         stroke="#ffffff"
         d="m 176.13022,62.446521 c -3.06238,0 -5.42623,1.151601 -7.09084,3.456229 -1.66461,2.303915 -2.49727,5.551801 -2.49727,9.743656 0,4.340248 0.80983,7.61095 2.4302,9.810688 1.62038,2.199728 4.00635,3.299952 7.15791,3.299952 3.44838,0 5.84862,-1.040294 7.20143,-3.121582 1.35281,-2.081288 2.02921,-5.41049 2.02921,-9.989058 0,-4.578576 -0.76559,-7.922785 -2.29678,-10.034053 -1.53118,-2.110555 -3.84223,-3.165832 -6.93386,-3.165832 z m -52.30936,-0.312516 c -3.18082,0 -5.63386,1.122347 -7.3584,3.367041 -0.86192,1.122347 -1.50836,2.480864 -1.93932,4.07484 l -0.45593,2.413795 h 18.98429 c 0,-3.180816 -0.80983,-5.61887 -2.4302,-7.31345 -1.62038,-1.69458 -3.88719,-2.542226 -6.80044,-2.542226 z m 49.00867,-11.059363 c 3.59751,0 6.32525,0.780576 8.18322,2.34173 1.85797,1.560441 3.06951,3.931426 3.6346,7.112241 h 0.84123 l 0.76417,-8.562087 h 11.19279 V 95.04443 c 0,8.41365 -1.97642,14.61974 -5.93068,18.61823 -3.95426,3.9985 -10.25667,6.14687 -18.90794,6.44369 l -13.82421,0.44594 -0.44594,-10.52423 15.16203,-0.44595 c 4.16189,-0.11844 7.17931,-1.27075 9.05298,-3.45551 1.87225,-2.18547 2.80908,-5.40339 2.80908,-9.655159 v -5.797217 h -0.98107 c -0.47591,3.151542 -1.70956,5.51538 -3.70168,7.090801 -1.9914,1.575411 -4.63779,2.363115 -7.93705,2.363115 -5.85718,0 -10.41293,-2.110538 -13.66866,-6.332334 -3.25502,-4.221086 -4.88253,-10.27088 -4.88253,-18.1494 0,-7.818613 1.62751,-13.869155 4.88253,-18.150199 3.25573,-4.281044 7.84144,-6.421565 13.75713,-6.421565 z m -49.09786,0 c 6.7191,0 11.92913,1.977128 15.63009,5.931386 3.70168,3.953544 5.55251,9.706553 5.55251,17.257601 0,2.140522 -0.10417,4.176864 -0.31251,6.109755 h -29.9138 l 0.15269,0.579354 c 0.64287,1.694571 1.60754,3.121585 2.89328,4.281026 2.57148,2.318888 6.23534,3.478332 10.99229,3.478332 2.17049,0 4.28818,-0.11131 6.3545,-0.33393 2.06631,-0.223317 4.18472,-0.527987 6.35449,-0.914704 l 1.16016,11.416047 c -3.0324,0.535137 -5.79796,0.877614 -8.29523,1.026024 -2.49728,0.148407 -4.712,0.222607 -6.64418,0.222607 -8.17537,0 -14.49276,-2.117678 -18.95219,-6.354454 -4.45945,-4.236076 -6.68989,-10.32368 -6.68989,-18.261419 0,-7.729425 1.8958,-13.735016 5.68597,-18.01606 3.79089,-4.281044 9.13434,-6.421565 16.03182,-6.421565 z M 60.898729,46.74936 v 18.462002 h 10.746847 c 2.734873,0 4.860412,-0.810545 6.377328,-2.430206 1.51549,-1.620375 2.273948,-3.887188 2.273948,-6.801152 0,-2.943217 -0.758458,-5.217165 -2.273948,-6.822557 C 76.505988,47.552056 74.380449,46.74936 71.645576,46.74936 Z M 49.125859,35.912611 h 10.255954 1.516916 10.746847 c 6.808287,0 12.070403,1.665326 15.786349,4.994551 3.715946,3.329939 5.574633,8.056925 5.574633,14.180958 0,6.62991 -1.858687,11.780719 -5.574633,15.452428 -0.928987,0.91757 -1.95501,1.720979 -3.077357,2.409514 L 83.5269,73.396004 95.325456,99.236266 H 81.277925 l -9.307703,-23.199572 -0.324646,0.0107 H 60.898729 v 23.188872 h -11.77287 z" />
      <text
         style="stroke-width:0.713507"
         id="text1038"
         y="109.97263"
         x="49.125854"
         font-size="84.6398px"
         font-family="Arial, Arial_MSFontService, sans-serif"
         fill-opacity="0"
         fill="#000000">Reg</text>
    </g>
    <g
       transform="matrix(0.9474466,0,0,0.87421986,132.49987,-60.465639)"
       id="g876">
      <g
         id="g1024"
         transform="matrix(0.7135073,0,0,0.7135073,14.446249,107.04332)"
         filter="url(#fx0)"
         clip-path="url(#clip3)">
        <g
           id="g1022"
           clip-path="url(#clip4)">
          <path
             id="path1020"
             fill-rule="evenodd"
             fill="#5b9bd5"
             stroke-miterlimit="10"
             stroke-linejoin="round"
             stroke="#ffffff"
             d="M 3.81561,3.09692 H 34.0969 L 52.4719,34.2545 70.8469,3.09692 H 101.128 L 64.1745,52.6392 101.128,102.472 H 70.8469 L 52.0574,71.3864 34.0969,102.472 H 3.81561 L 40.2769,53.3032 Z" />
        </g>
      </g>
      <path
         style="stroke-width:0.713507"
         id="path1026"
         fill-rule="evenodd"
         fill="#5b9bd5"
         stroke-miterlimit="10"
         stroke-linejoin="round"
         stroke="#ffffff"
         d="m 14.12089,106.20495 h 21.605715 l 13.110697,22.23146 13.110696,-22.23146 h 21.605715 l -26.366235,35.34858 26.366235,35.55621 H 61.947998 L 48.541196,154.93037 35.726605,177.10974 H 14.12089 L 40.13608,142.0273 Z" />
      <text
         style="stroke-width:0.713507"
         id="text1028"
         y="168.2469"
         x="14.120888"
         font-size="70.9048px"
         font-family="Arial, Arial_MSFontService, sans-serif"
         fill-opacity="0"
         fill="#000000">x</text>
    </g>
  </g>
</svg>
