<svg width="1112" height="957" xmlns="http://www.w3.org/2000/svg" xmlns:xlink="http://www.w3.org/1999/xlink" xml:space="preserve" overflow="hidden"><defs><filter id="fx0" x="-10%" y="-10%" width="120%" height="120%" filterUnits="userSpaceOnUse" primitiveUnits="userSpaceOnUse"><feComponentTransfer color-interpolation-filters="sRGB"><feFuncR type="discrete" tableValues="0.615686 0.615686"/><feFuncG type="discrete" tableValues="0.764706 0.764706"/><feFuncB type="discrete" tableValues="0.901961 0.901961"/><feFuncA type="linear" slope="1" intercept="0"/></feComponentTransfer><feGaussianBlur stdDeviation="2.3226 2.3226"/></filter><filter id="fx1" x="-10%" y="-10%" width="120%" height="120%" filterUnits="userSpaceOnUse" primitiveUnits="userSpaceOnUse"><feComponentTransfer color-interpolation-filters="sRGB"><feFuncR type="discrete" tableValues="0.615686 0.615686"/><feFuncG type="discrete" tableValues="0.764706 0.764706"/><feFuncB type="discrete" tableValues="0.901961 0.901961"/><feFuncA type="linear" slope="1" intercept="0"/></feComponentTransfer><feGaussianBlur stdDeviation="2.3226 2.3226"/></filter><clipPath id="clip2"><rect x="330" y="839" width="1112" height="957"/></clipPath><clipPath id="clip3"><rect x="-4" y="-2" width="580" height="477"/></clipPath><clipPath id="clip4"><rect x="0" y="0" width="572" height="473"/></clipPath><clipPath id="clip5"><rect x="-4" y="-4" width="457" height="345"/></clipPath><clipPath id="clip6"><rect x="0" y="0" width="450" height="339"/></clipPath></defs><g clip-path="url(#clip2)" transform="translate(-330 -839)"><g clip-path="url(#clip3)" filter="url(#fx0)" transform="translate(424 1071)"><g clip-path="url(#clip4)"><path d="M176.224 132.719 293.207 132.719 175.58 463.364 59.5643 463.364ZM59.5643 9.93607 384.086 9.93607C500.746 9.93607 559.076 47.104 559.076 121.44 559.076 184.389 498.383 239.389 376.996 286.44L435.004 411.801 562.943 411.801C562.084 427.915 554.564 440.805 540.385 450.473 527.494 459.067 512.562 463.364 495.59 463.364L371.517 463.364C354.545 463.364 341.654 458.852 332.846 449.829 327.045 444.028 319.74 431.352 310.931 411.801L247.445 271.293C255.394 269.79 273.764 263.667 302.553 252.924 330.482 242.612 347.992 235.522 355.082 231.655 397.836 209.526 419.213 181.811 419.213 148.51 419.213 110.268 392.142 91.147 338.002 91.147L9.2909 91.147Z" stroke="#FFFFFF" stroke-width="3" stroke-linejoin="round" stroke-miterlimit="10" fill="#5B9BD5" fill-rule="evenodd"/></g></g><path d="M585.121 1188.62 702.104 1188.62 584.477 1519.26 468.461 1519.26ZM468.461 1065.83 792.982 1065.83C909.643 1065.83 967.973 1103 967.973 1177.34 967.973 1240.29 907.279 1295.29 785.893 1342.34L843.9 1467.7 971.84 1467.7C970.98 1483.81 963.461 1496.7 949.281 1506.37 936.391 1514.96 921.459 1519.26 904.486 1519.26L780.414 1519.26C763.441 1519.26 750.551 1514.75 741.742 1505.73 735.941 1499.92 728.637 1487.25 719.828 1467.7L656.342 1327.19C664.291 1325.69 682.66 1319.56 711.449 1308.82 739.379 1298.51 756.889 1291.42 763.979 1287.55 806.732 1265.42 828.109 1237.71 828.109 1204.41 828.109 1166.16 801.039 1147.04 746.898 1147.04L418.188 1147.04Z" stroke="#FFFFFF" stroke-width="3" stroke-linejoin="round" stroke-miterlimit="10" fill="#5B9BD5" fill-rule="evenodd"/><text fill="#000000" fill-opacity="0" font-family="Arial,Arial_MSFontService,sans-serif" font-size="453.428" x="418.188" y="1462.58">R</text><g clip-path="url(#clip5)" filter="url(#fx1)" transform="translate(978 1013)"><g clip-path="url(#clip6)"><path d="M383.414 9.26224C398.597 9.26224 411.774 13.9888 422.946 23.4419 434.69 33.3247 440.563 45.7141 440.563 60.6099 440.563 75.5057 434.69 87.9667 422.946 97.9927 411.774 107.446 398.74 112.172 383.844 112.172 373.818 112.172 363.828 109.558 353.873 104.331 343.919 99.1027 336.292 92.3351 330.993 84.0278L258.375 160.083 292.321 288.989 404.469 288.989C402.607 300.304 395.804 309.112 384.059 315.415 374.176 320.714 362.933 323.364 350.328 323.364L265.895 323.364C252.002 323.364 239.97 319.139 229.801 310.688 220.348 302.524 213.616 291.639 209.606 278.032L194.996 228.403 126.461 299.946C107.842 319.425 87.861 329.165 66.5199 329.165 51.4808 329.165 38.3038 324.438 26.9887 314.985 15.2439 304.959 9.37147 292.498 9.37147 277.602 9.37147 263.279 14.9574 251.105 26.1293 241.079 37.3012 231.053 50.7647 226.04 66.5199 226.04 90.2959 226.04 107.483 235.922 118.082 255.688L183.61 186.938 157.184 75.2193 50.4066 75.2193 82.848 21.0786 173.082 21.0786C210.322 21.0786 232.164 36.619 238.61 67.6997L249.137 118.403 313.375 51.3716C328.844 35.33 339.013 25.5187 343.883 21.938 355.485 13.4875 368.662 9.26224 383.414 9.26224Z" stroke="#FFFFFF" stroke-width="3" stroke-linejoin="round" stroke-miterlimit="10" fill="#5B9BD5" fill-rule="evenodd"/></g></g><path d="M1346.31 1007.16C1361.49 1007.16 1374.67 1011.89 1385.84 1021.34 1397.59 1031.22 1403.46 1043.61 1403.46 1058.51 1403.46 1073.4 1397.59 1085.86 1385.84 1095.89 1374.67 1105.34 1361.64 1110.07 1346.74 1110.07 1336.71 1110.07 1326.72 1107.46 1316.77 1102.23 1306.82 1097 1299.19 1090.23 1293.89 1081.92L1221.27 1157.98 1255.22 1286.89 1367.37 1286.89C1365.5 1298.2 1358.7 1307.01 1346.96 1313.31 1337.07 1318.61 1325.83 1321.26 1313.23 1321.26L1228.79 1321.26C1214.9 1321.26 1202.87 1317.04 1192.7 1308.58 1183.24 1300.42 1176.51 1289.54 1172.5 1275.93L1157.89 1226.3 1089.36 1297.84C1070.74 1317.32 1050.76 1327.06 1029.42 1327.06 1014.38 1327.06 1001.2 1322.33 989.885 1312.88 978.141 1302.86 972.268 1290.39 972.268 1275.5 972.268 1261.18 977.854 1249 989.026 1238.98 1000.2 1228.95 1013.66 1223.94 1029.42 1223.94 1053.19 1223.94 1070.38 1233.82 1080.98 1253.58L1146.51 1184.83 1120.08 1073.12 1013.3 1073.12 1045.74 1018.98 1135.98 1018.98C1173.22 1018.98 1195.06 1034.52 1201.51 1065.6L1212.03 1116.3 1276.27 1049.27C1291.74 1033.23 1301.91 1023.42 1306.78 1019.83 1318.38 1011.38 1331.56 1007.16 1346.31 1007.16Z" stroke="#FFFFFF" stroke-width="3" stroke-linejoin="round" stroke-miterlimit="10" fill="#5B9BD5" fill-rule="evenodd"/><text fill="#000000" fill-opacity="0" font-family="Arial,Arial_MSFontService,sans-serif" font-size="319.902" x="972.268" y="1287.07">X</text></g></svg>