<?xml version="1.0" encoding="UTF-8" standalone="no"?>
<svg
   width="1014.3119"
   height="1014.3119"
   xml:space="preserve"
   overflow="hidden"
   version="1.1"
   id="svg1014"
   sodipodi:docname="RegExponent.svg"
   inkscape:version="1.1.2 (b8e25be833, 2022-02-05)"
   xmlns:inkscape="http://www.inkscape.org/namespaces/inkscape"
   xmlns:sodipodi="http://sodipodi.sourceforge.net/DTD/sodipodi-0.dtd"
   xmlns="http://www.w3.org/2000/svg"
   xmlns:svg="http://www.w3.org/2000/svg"
   xmlns:rdf="http://www.w3.org/1999/02/22-rdf-syntax-ns#"
   xmlns:cc="http://creativecommons.org/ns#"
   xmlns:dc="http://purl.org/dc/elements/1.1/"><metadata
     id="metadata1018"><rdf:RDF><cc:Work
         rdf:about=""><dc:format>image/svg+xml</dc:format><dc:type
           rdf:resource="http://purl.org/dc/dcmitype/StillImage" /></cc:Work></rdf:RDF></metadata><sodipodi:namedview
     fit-margin-bottom="0"
     fit-margin-right="0"
     fit-margin-left="0"
     fit-margin-top="0"
     inkscape:document-rotation="0"
     pagecolor="#ffffff"
     bordercolor="#666666"
     borderopacity="1"
     objecttolerance="10"
     gridtolerance="10"
     guidetolerance="10"
     inkscape:pageopacity="0"
     inkscape:pageshadow="2"
     inkscape:window-width="1920"
     inkscape:window-height="1017"
     id="namedview1016"
     showgrid="false"
     inkscape:zoom="0.74642639"
     inkscape:cx="302.776"
     inkscape:cy="526.50872"
     inkscape:window-x="-8"
     inkscape:window-y="-8"
     inkscape:window-maximized="1"
     inkscape:current-layer="layer3"
     inkscape:pagecheckerboard="true"
     inkscape:snap-page="false" /><defs
     id="defs990"><inkscape:perspective
       sodipodi:type="inkscape:persp3d"
       inkscape:vp_x="0 : 507.15594 : 1"
       inkscape:vp_y="0 : 1000 : 0"
       inkscape:vp_z="1014.3119 : 507.15594 : 1"
       inkscape:persp3d-origin="507.15594 : 338.10396 : 1"
       id="perspective1562" /><linearGradient
       id="linearGradient29922"
       inkscape:swatch="solid"><stop
         style="stop-color:#ffe680;stop-opacity:1;"
         offset="0"
         id="stop29920" /></linearGradient><filter
       id="fx0"
       x="-111.2"
       y="-95.700005"
       width="1334.4"
       height="1148.4"
       filterUnits="userSpaceOnUse"
       primitiveUnits="userSpaceOnUse"><feComponentTransfer
         color-interpolation-filters="sRGB"
         id="feComponentTransfer957"><feFuncR
           type="discrete"
           tableValues="0.615686 0.615686"
           id="feFuncR949" /><feFuncG
           type="discrete"
           tableValues="0.764706 0.764706"
           id="feFuncG951" /><feFuncB
           type="discrete"
           tableValues="0.901961 0.901961"
           id="feFuncB953" /><feFuncA
           type="linear"
           slope="1"
           intercept="0"
           id="feFuncA955" /></feComponentTransfer><feGaussianBlur
         stdDeviation="2.3226 2.3226"
         id="feGaussianBlur959" /></filter><filter
       id="fx1"
       x="-111.2"
       y="-95.700005"
       width="1334.4"
       height="1148.4"
       filterUnits="userSpaceOnUse"
       primitiveUnits="userSpaceOnUse"><feComponentTransfer
         color-interpolation-filters="sRGB"
         id="feComponentTransfer970"><feFuncR
           type="discrete"
           tableValues="0.615686 0.615686"
           id="feFuncR962" /><feFuncG
           type="discrete"
           tableValues="0.764706 0.764706"
           id="feFuncG964" /><feFuncB
           type="discrete"
           tableValues="0.901961 0.901961"
           id="feFuncB966" /><feFuncA
           type="linear"
           slope="1"
           intercept="0"
           id="feFuncA968" /></feComponentTransfer><feGaussianBlur
         stdDeviation="2.3226 2.3226"
         id="feGaussianBlur972" /></filter><clipPath
       id="clip3"><rect
         x="-4"
         y="-2"
         width="580"
         height="477"
         id="rect978" /></clipPath><clipPath
       id="clip4"><rect
         x="0"
         y="0"
         width="572"
         height="473"
         id="rect981" /></clipPath><clipPath
       id="clip5"><rect
         x="-4"
         y="-4"
         width="457"
         height="345"
         id="rect984" /></clipPath><clipPath
       id="clip6"><rect
         x="0"
         y="0"
         width="450"
         height="339"
         id="rect987" /></clipPath><filter
       id="fx0-8"
       x="-111.2"
       y="-95.700005"
       width="1334.4"
       height="1148.4"
       filterUnits="userSpaceOnUse"
       primitiveUnits="userSpaceOnUse"><feComponentTransfer
         color-interpolation-filters="sRGB"
         id="feComponentTransfer1596"><feFuncR
           type="discrete"
           tableValues="0.615686 0.615686"
           id="feFuncR1588" /><feFuncG
           type="discrete"
           tableValues="0.764706 0.764706"
           id="feFuncG1590" /><feFuncB
           type="discrete"
           tableValues="0.901961 0.901961"
           id="feFuncB1592" /><feFuncA
           type="linear"
           slope="1"
           intercept="0"
           id="feFuncA1594" /></feComponentTransfer><feGaussianBlur
         stdDeviation="1.37266 1.37266"
         id="feGaussianBlur1598" /></filter><clipPath
       id="clip2-5"><rect
         x="-1"
         y="-1"
         width="385"
         height="185"
         id="rect1604" /></clipPath><clipPath
       id="clip3-1"><rect
         x="0"
         y="0"
         width="384"
         height="185"
         id="rect1607" /></clipPath></defs><g
     inkscape:groupmode="layer"
     id="layer3"
     inkscape:label="White Triangle"
     style="display:inline"><path
       sodipodi:type="star"
       style="opacity:1;fill:#ffffff;stroke:#ffffff;stroke-width:18.7625;stroke-linejoin:round;stroke-miterlimit:4;stroke-dasharray:none;fill-opacity:1;stroke-opacity:1"
       id="path1722"
       inkscape:flatsided="true"
       sodipodi:sides="3"
       sodipodi:cx="482.9679"
       sodipodi:cy="630.33679"
       sodipodi:r1="245.65794"
       sodipodi:r2="128.13016"
       sodipodi:arg1="1.552726"
       sodipodi:arg2="2.5999236"
       inkscape:rounded="0.13793808"
       inkscape:randomized="0"
       d="M 487.40677,875.95463 C 428.7248,877.01515 239.61462,562.72239 268.03717,511.37205 296.45972,460.02172 663.20032,453.39387 693.45974,503.68369 723.71916,553.97351 546.08875,874.89411 487.40677,875.95463 Z"
       inkscape:transform-center-x="0.46732648"
       inkscape:transform-center-y="-54.185892"
       transform="matrix(-1.9499568,-1.0870569,-1.0870569,1.9499568,2020.491,-195.15912)" /></g><g
     inkscape:groupmode="layer"
     id="g965"
     inkscape:label="Color Triangle"
     style="display:inline"><path
       sodipodi:type="star"
       style="opacity:0.5;fill:#ffe680;stroke:#5b9bd5;stroke-width:18.7625;stroke-linejoin:round;stroke-miterlimit:4;stroke-dasharray:none"
       id="path963"
       inkscape:flatsided="true"
       sodipodi:sides="3"
       sodipodi:cx="482.9679"
       sodipodi:cy="630.33679"
       sodipodi:r1="245.65794"
       sodipodi:r2="128.13016"
       sodipodi:arg1="1.552726"
       sodipodi:arg2="2.5999236"
       inkscape:rounded="0.13793808"
       inkscape:randomized="0"
       d="M 487.40677,875.95463 C 428.7248,877.01515 239.61462,562.72239 268.03717,511.37205 296.45972,460.02172 663.20032,453.39387 693.45974,503.68369 723.71916,553.97351 546.08875,874.89411 487.40677,875.95463 Z"
       inkscape:transform-center-x="0.46732648"
       inkscape:transform-center-y="-54.185892"
       transform="matrix(-1.9499568,-1.0870569,-1.0870569,1.9499568,2020.491,-195.15912)" /></g><g
     transform="translate(-31.489109,-294.1347)"
     inkscape:groupmode="layer"
     id="layer1"
     inkscape:label="Text"
     style="display:inline"><g
       clip-path="url(#clip5)"
       filter="url(#fx1)"
       transform="translate(592.80099,507.66198)"
       id="g1006"
       inkscape:groupmode="layer"
       style="display:inline"><g
         clip-path="url(#clip6)"
         id="g1004"><path
           d="m 383.414,9.26224 c 15.183,0 28.36,4.72656 39.532,14.17966 11.744,9.8828 17.617,22.2722 17.617,37.168 0,14.8958 -5.873,27.3568 -17.617,37.3828 -11.172,9.4533 -24.206,14.1793 -39.102,14.1793 -10.026,0 -20.016,-2.614 -29.971,-7.841 -9.954,-5.2283 -17.581,-11.9959 -22.88,-20.3032 l -72.618,76.0552 33.946,128.906 h 112.148 c -1.862,11.315 -8.665,20.123 -20.41,26.426 -9.883,5.299 -21.126,7.949 -33.731,7.949 h -84.433 c -13.893,0 -25.925,-4.225 -36.094,-12.676 -9.453,-8.164 -16.185,-19.049 -20.195,-32.656 l -14.61,-49.629 -68.535,71.543 c -18.619,19.479 -38.6,29.219 -59.9411,29.219 -15.0391,0 -28.2161,-4.727 -39.5312,-14.18 C 15.2439,304.959 9.37147,292.498 9.37147,277.602 c 0,-14.323 5.58593,-26.497 16.75783,-36.523 11.1719,-10.026 24.6354,-15.039 40.3906,-15.039 23.776,0 40.9631,9.882 51.5621,29.648 L 183.61,186.938 157.184,75.2193 H 50.4066 L 82.848,21.0786 h 90.234 c 37.24,0 59.082,15.5404 65.528,46.6211 l 10.527,50.7033 64.238,-67.0314 C 328.844,35.33 339.013,25.5187 343.883,21.938 355.485,13.4875 368.662,9.26224 383.414,9.26224 Z"
           stroke="#ffffff"
           stroke-width="3"
           stroke-linejoin="round"
           stroke-miterlimit="10"
           fill="#5b9bd5"
           fill-rule="evenodd"
           id="path1002" /></g></g><g
       clip-path="url(#clip3)"
       filter="url(#fx0)"
       transform="translate(38.80099,565.66198)"
       id="g996"
       inkscape:groupmode="layer"
       style="display:inline"><g
         clip-path="url(#clip4)"
         id="g994"><path
           d="M 176.224,132.719 H 293.207 L 175.58,463.364 H 59.5643 Z M 59.5643,9.93607 H 384.086 c 116.66,0 174.99,37.16793 174.99,111.50393 0,62.949 -60.693,117.949 -182.08,165 l 58.008,125.361 h 127.939 c -0.859,16.114 -8.379,29.004 -22.558,38.672 -12.891,8.594 -27.823,12.891 -44.795,12.891 H 371.517 c -16.972,0 -29.863,-4.512 -38.671,-13.535 -5.801,-5.801 -13.106,-18.477 -21.915,-38.028 L 247.445,271.293 c 7.949,-1.503 26.319,-7.626 55.108,-18.369 27.929,-10.312 45.439,-17.402 52.529,-21.269 42.754,-22.129 64.131,-49.844 64.131,-83.145 0,-38.242 -27.071,-57.363 -81.211,-57.363 H 9.2909 Z"
           stroke="#ffffff"
           stroke-width="3"
           stroke-linejoin="round"
           stroke-miterlimit="10"
           fill="#5b9bd5"
           fill-rule="evenodd"
           id="path992" /></g></g><path
       d="m 199.92199,683.28198 h 116.983 l -117.627,330.64002 h -116.016 z m -116.66,-122.79 h 324.521 c 116.661,0 174.991,37.17 174.991,111.51 0,62.95 -60.694,117.95 -182.08,165 l 58.007,125.36 h 127.94 c -0.86,16.11 -8.379,29 -22.559,38.67002 -12.89,8.59 -27.822,12.89 -44.795,12.89 h -124.072 c -16.973,0 -29.863,-4.51 -38.672,-13.53 -5.801,-5.81002 -13.105,-18.48002 -21.914,-38.03002 l -63.486,-140.51 c 7.949,-1.5 26.318,-7.63 55.107,-18.37 27.93,-10.31 45.44,-17.4 52.53,-21.27 42.753,-22.13 64.13,-49.84 64.13,-83.14 0,-38.25 -27.07,-57.37 -81.211,-57.37 h -328.71 z"
       stroke="#ffffff"
       stroke-width="3"
       stroke-linejoin="round"
       stroke-miterlimit="10"
       fill="#5b9bd5"
       fill-rule="evenodd"
       id="path998" /><text
       fill="#000000"
       fill-opacity="0"
       font-family="Arial, Arial_MSFontService, sans-serif"
       font-size="453.428px"
       x="32.988979"
       y="957.24194"
       id="text1000">R</text><path
       d="m 961.11099,501.82198 c 15.18,0 28.36,4.73 39.53001,14.18 11.75,9.88 17.62,22.27 17.62,37.17 0,14.89 -5.87,27.35 -17.62,37.38 -11.17001,9.45 -24.20001,14.18 -39.10001,14.18 -10.03,0 -20.02,-2.61 -29.97,-7.84 -9.95,-5.23 -17.58,-12 -22.88,-20.31 l -72.62,76.06 33.95,128.91 h 112.15 c -1.87,11.31 -8.67,20.12 -20.41,26.42 -9.89,5.3 -21.13,7.95 -33.73,7.95 h -84.44 c -13.89,0 -25.92,-4.22 -36.09,-12.68 -9.46,-8.16 -16.19,-19.04 -20.2,-32.65 l -14.61,-49.63 -68.53,71.54 c -18.62,19.48 -38.6,29.22 -59.94,29.22 -15.04,0 -28.22,-4.73 -39.535,-14.18 -11.744,-10.02 -17.617,-22.49 -17.617,-37.38 0,-14.32 5.586,-26.5 16.758,-36.52 11.174,-10.03 24.634,-15.04 40.394,-15.04 23.77,0 40.96,9.88 51.56,29.64 l 65.53,-68.75 -26.43,-111.71 h -106.78 l 32.44,-54.14 h 90.24 c 37.24,0 59.08,15.54 65.53,46.62 l 10.52,50.7 64.24,-67.03 c 15.47,-16.04 25.64,-25.85 30.51,-29.44 11.6,-8.45 24.78,-12.67 39.53,-12.67 z"
       stroke="#ffffff"
       stroke-width="3"
       stroke-linejoin="round"
       stroke-miterlimit="10"
       fill="#5b9bd5"
       fill-rule="evenodd"
       id="path1008" /><text
       fill="#000000"
       fill-opacity="0"
       font-family="Arial, Arial_MSFontService, sans-serif"
       font-size="319.902px"
       x="587.06897"
       y="781.73193"
       id="text1010">X</text><g
       transform="translate(-20)"
       id="layer2"
       inkscape:label="eg"
       style="display:inline"><g
         clip-path="url(#clip2-5)"
         transform="translate(607.53607,918.2593)"
         id="g1616"
         style="display:inline;mix-blend-mode:normal;filter:url(#fx0-8)"
         filter="url(#fx0)"
         inkscape:groupmode="layer"><g
           clip-path="url(#clip3-1)"
           id="g1614"
           style="display:inline"
           inkscape:groupmode="layer"><path
             d="m 257.447,108.229 c -6.2,0 -11.994,3.553 -17.383,10.659 -5.389,7.105 -8.083,14.187 -8.083,21.245 0,6.295 2.718,11.35 8.155,15.165 z m -5.294,-78.2572 -11.445,36.3389 c -0.668,2.1937 -1.002,4.1966 -1.002,6.0088 0,8.1071 5.914,12.1606 17.741,12.1606 0.763,0 1.883,-0.0477 3.362,-0.1431 1.478,-0.0953 2.599,-0.143 3.362,-0.143 L 282.626,29.9718 Z M 79.5911,7.08118 h 20.7449 c 12.113,0 22.747,1.85987 31.904,5.57962 12.208,4.9596 18.598,12.4944 19.17,22.6045 0.477,10.2054 -4.435,18.694 -14.735,25.4658 H 89.3196 L 104.771,29.9718 H 74.5838 l -11.7314,34.479 c -0.6677,2.0029 -1.0015,3.8151 -1.0015,5.4365 0,7.7256 6.1995,11.5884 18.5986,11.5884 H 191.412 l -1.242,-2.3963 c -1.693,-4.2682 -2.54,-8.9059 -2.54,-13.9133 0,-3.9104 0.62,-8.0117 1.86,-12.3037 4.101,-15.5465 13.114,-27.278 27.04,-35.1943 12.208,-7.0579 26.896,-10.58692 44.064,-10.58692 h 81.834 L 316.247,81.4757 h 60.66 C 372.52,96.7361 358.356,104.366 334.416,104.366 H 308.95 c -8.488,23.082 -16.929,39.773 -25.322,50.074 -12.304,15.069 -27.898,22.604 -46.783,22.604 -10.682,0 -19.195,-2.98 -25.537,-8.942 -6.343,-5.961 -9.514,-14.235 -9.514,-24.822 0,-20.697 6.056,-34.049 18.169,-40.058 -8.965,-2.099 -16.357,-6.2474 -22.175,-12.447 -1.693,-1.7645 -3.174,-3.6213 -4.444,-5.5706 l -1.569,-3.0282 -1.719,4.5125 c -2.468,4.9179 -6.384,8.9506 -11.749,12.098 -6.39,3.7193 -13.687,5.5793 -21.889,5.5793 H 76.7298 C 30.3763,104.366 7.19953,90.3935 7.19953,62.4479 7.19953,44.5169 15.1159,30.4487 30.9486,20.2433 44.5875,11.4686 60.8017,7.08118 79.5911,7.08118 Z"
             stroke="#ffffff"
             stroke-width="3"
             stroke-linejoin="round"
             stroke-miterlimit="10"
             fill="#5b9bd5"
             fill-rule="evenodd"
             id="path1612"
             style="display:inline" /></g></g><path
         d="m 856.30607,1017.8193 c -6.2,0 -11.99,3.55 -17.38,10.65 -5.39,7.11 -8.08,14.19 -8.08,21.25 0,6.3 2.72,11.35 8.15,15.17 z m -5.29,-78.26 -11.44,36.34 c -0.67,2.19 -1.01,4.19 -1.01,6.01 0,8.1 5.92,12.16 17.74,12.16 0.77,0 1.89,-0.05 3.37,-0.15 1.47,-0.09 2.6,-0.14 3.36,-0.14 l 18.45,-54.22 z m -172.56,-22.89 h 20.74 c 12.12,0 22.75,1.86 31.91,5.58 12.21,4.96 18.6,12.49 19.17,22.6 0.47,10.21 -4.44,18.7 -14.74,25.47 h -47.35 l 15.45,-30.76 h -30.19 l -11.73,34.48 c -0.67,2 -1,3.81 -1,5.43 0,7.73 6.2,11.59 18.6,11.59 h 110.96 l -1.24,-2.39 c -1.7,-4.27 -2.54,-8.91 -2.54,-13.92 0,-3.91 0.62,-8.01 1.86,-12.3 4.1,-15.55 13.11,-27.28 27.04,-35.19 12.21,-7.06 26.89,-10.59 44.06,-10.59 h 81.84 l -26.19,74.39 h 60.66 c -4.38,15.26 -18.55,22.89 -42.49,22.89 h -25.46 c -8.49,23.09 -16.93,39.78 -25.32,50.08 -12.31,15.07 -27.9,22.6 -46.79,22.6 -10.68,0 -19.19,-2.98 -25.53,-8.94 -6.35,-5.96 -9.52,-14.24 -9.52,-24.82 0,-20.7 6.06,-34.05 18.17,-40.06 -8.96,-2.1 -16.36,-6.25 -22.17,-12.45 -1.7,-1.76 -3.18,-3.62 -4.45,-5.57 l -1.57,-3.03 -1.72,4.52 c -2.46,4.91 -6.38,8.95 -11.75,12.09 -6.39,3.72 -13.68,5.58 -21.88,5.58 h -79.69 c -46.36,0 -69.533,-13.97 -69.533,-41.91 0,-17.94 7.916,-32 23.753,-42.21 13.63,-8.77 29.85,-13.16 48.64,-13.16 z"
         stroke="#ffffff"
         stroke-width="3"
         stroke-linejoin="round"
         stroke-miterlimit="10"
         fill="#5b9bd5"
         fill-rule="evenodd"
         id="path1618" /><text
         fill="#000000"
         fill-opacity="0"
         font-family="Arial, Arial_MSFontService, sans-serif"
         font-size="169.963px"
         x="606.06305"
         y="1065.3893"
         id="text1620">eg</text></g></g></svg>
